<?xml version="1.0" encoding="UTF-8"?>
<svg enable-background="new 0 0 149.4702 110.4312" viewBox="0 0 149.4702 110.4312" xmlns="http://www.w3.org/2000/svg">
 <defs>
  <filter id="a">
   <feGaussianBlur in="SourceAlpha" result="blur" stdDeviation="2"/>
   <feOffset dx="4" dy="4" in="blur" result="offsetBlurredAlpha"/>
   <feMerge>
    <feMergeNode in="offsetBlurredAlpha"/>
    <feMergeNode in="SourceGraphic"/>
   </feMerge>
  </filter>
 </defs>
 <g filter="url(#a)">
  <path d="m146.8706,27.0522c-.9492-1.6406-2.8457-3.8027-6.5195-4.791l-.0273-.0063-4.9023-15.0044c-.168-.5537-.4121-1.0991-.7246-1.6348-1.2012-2.0903-3.25-3.5527-5.7793-4.1123-.7598-.167-1.5391-.2534-2.3164-.2534-1.2363,0-2.4805.2148-3.7129.6436-1.3359.4678-2.4766.98-3.4727,1.5542-2.2188,1.2808-3.8789,2.8179-5.0234,4.5605l-.0547-.0044c-1.3867,0-2.7441.4907-3.8145,1.4058-.418.354-.8848.7168-1.3535,1.0698-.4512.3325-.877.6123-1.2598.8354-.6777.3892-1.3945.7607-2.125,1.1025-.791.3657-1.5098.6802-2.1602.936-.7793.3062-1.4707.77-2.0469,1.3525-.6855.1782-1.3418.481-1.9297.9028-2.3438,1.6704-4.9277,3.3228-7.6777,4.9072-1.5762.9121-2.9707,1.6851-4.2715,2.3706-1.2402.6548-2.4961,1.2607-3.7402,1.7925-.4688.2021-.9023.4639-1.2988.7725-.4512.1812-.8789.4189-1.2773.7134-1.9355,1.4238-4.0684,2.8115-6.3423,4.1279-2.5586,1.4766-5.0879,2.7788-7.5186,3.8662-.793.356-1.4795.8828-2.0371,1.5264-.707.1367-1.3994.3921-2.04.8008-1.1006.6992-2.8389,1.7808-5.2217,3.2383-2.4121,1.4761-4.6367,2.8296-6.6729,4.0566-2.0322,1.2202-4.5332,2.6904-7.4932,4.4028-1.1113.6372-2.2861,1.2676-3.4902,1.8726-1.2588.6284-2.4063,1.1821-3.4521,1.6533l-.1035.061c-.3213.1533-.6338.3281-.9268.541l-.0225.0171-.0156.0107-1.0244.7524-.9141.6704c-.6494.4819-1.2637.8921-1.8301,1.2178-.2119.124-.54.2837-.9824.4907-.6777.3164-1.21.5879-1.5986.8008l-2.6621,1.25c-1.4912.6992-2.6191,1.9912-3.1113,3.5605-.3047.9629-.3535,1.9746-.1582,2.9395l-2.5645-.8594c-.6113-.2031-1.2412-.3047-1.8682-.3047-1.2842,0-2.5547.4199-3.5986,1.2266-1.5273,1.1797-3.2539,2.3262-5.127,3.4072-1.9482,1.124-3.873,2.084-5.7295,2.8545-1.5625.6504-2.7725,1.9424-3.3154,3.5459s-.3701,3.3662.4785,4.835l1.1045,1.9121c.7832,1.3496 2.0713,2.3369 3.583,2.7393 .4961.1328 1.0029.1973 1.5117.1973 .4248,0 .8486-.0459 1.2617-.1387l8.0742,13.9805c-.4971.5459-.8955,1.1885-1.1621,1.8975-.6182,1.6455-.4688,3.4844.4102,5.0117l1.1035,1.9121c.8359,1.4473 2.251,2.4756 3.8896,2.8184 .3994.083.8018.124 1.2041.124 1.2471,0 2.4707-.3955 3.4941-1.1436 1.6357-1.208 2.5908-1.9082 2.8799-2.1094 .2344-.1563.6621-.4053 1.2939-.7686 .4697-.2754 1.0488-.5703 1.7529-.9043 .7988-.3838 1.79-.8359 2.9609-1.3506 1.5293-.6738 2.7002-1.9648 3.2246-3.5518s.3418-3.3213-.4912-4.7686l-1.0791-1.875c-.2568-.4434-.5674-.8506-.9219-1.207l9.7197,3.1611c.5928.1924 1.208.2861 1.8193.2861 1.0234,0 2.04-.2656 2.9443-.7891l4.2402-2.4492c.6133-.3535 1.1201-.8145 1.5498-1.3271 .8506-.1436 1.668-.4678 2.3916-.9736 1.0908-.7617 2.3027-1.5723 3.6162-2.4297 1.3184-.8555 2.583-1.6328 3.7676-2.3164 1.6563-.957 3.873-2.2051 6.6533-3.7402 2.8052-1.5518 5.6821-3.1289 8.6294-4.7305 3.0547-1.6563 4.7695-2.5938 5.1348-2.8096 2.6289-1.5322 3.6543-4.8213 2.3613-7.5791l-3.5137-7.499c-.6973-1.4912-1.9902-2.6201-3.5605-3.1147-.5781-.1812-1.1738-.272-1.7656-.272-.4434,0-.877.0503-1.3066.1479l-.2559-.4448-.25-.4321-.2793-.4834-.334-.5747-.3516-.6104-.4473-.77-.498-.8628-.2441-.4326c.1406-.2949.2383-.6147.3301-.9351l18.0453,14.8739c1.0781.8887 2.4063,1.3438 3.7402,1.3438 1.0117,0 2.0273-.2617 2.9434-.791l5.5039-3.1797c2.1602-1.2461 3.2988-3.7178 2.8438-6.1699l-.1016-.5469 .4727.3945c1.084.9102 2.4316,1.377 3.7832,1.377 1.0059,0 2.0234-.2588 2.9395-.7871l5.2344-3.0225c2.1719-1.2544 3.3125-3.7451 2.8359-6.209l-4.0352-20.9888 4.5645,5.1792c-.8066,2.7666-.4824,5.6016.9355,8.0459 1.5234,2.6445 4.082,4.4043 7.1836,4.9492 .6465.1162 1.3105.1758 1.9688.1758 2.1836,0 4.3711-.6284 6.4629-1.8403l.625-.3569c.3008-.1758.582-.3755.8477-.5991 .1914-.1636.5313-.4165 1.0156-.7798 1.7363-1.2896 2.9434-3.252 3.584-5.8218 .6854-2.728.3358-5.3955-1.008-7.7154zm-117.0034,63.0928-.4844-.8389 1.6309.5313c-.3897.0625-.7735.166-1.1465.3076zm31.7041-35.8218-.2734-.4712 1.0322-.5957c.0166.1963.04.3887.0771.5811l-.8359.4858zm7.5244,13.0347-.5146-.8955 .7363-.4238c.2715.2549.5684.4805.8848.6787l-1.1065.6406z" fill="#fff" stroke="#ec2627" stroke-width="2.5"/>
  <path d="m40.6924,59.0571c-.1563.0225-.3633.1074-.6172.2539-.4082.2363-.9082.7363-1.501,1.5059s-.3525,2.0811.7236,3.9434l12.6172,21.8554-4.2412,2.4492-31.0547-10.0976 8.8496,15.3262c.7637,1.3242 1.5713,2.1484 2.4219,2.4746 .8506.3232 1.8613.1484 3.0322-.5283l1.0332-.5967 1.0801,1.873c-1.2451.5488-2.2959,1.0273-3.1465,1.4336s-1.5713.7803-2.1572,1.1191c-.8662.5-1.4395.8467-1.7168,1.042-.2783.1943-1.2773.9238-2.9922,2.1865l-1.1035-1.9121c.1406-.0459.3408-.1445.5947-.292 .4844-.2783.9199-.6748 1.3047-1.1846s.5557-1.0781.5195-1.7031c-.0371-.623-.3789-1.4961-1.0264-2.6172l-9.333-16.166c-.6328-1.0938-1.2139-1.8223-1.7441-2.1787s-1.1094-.4971-1.7441-.4189-1.207.2646-1.7168.5586l-.5352.3086-1.1035-1.9111c2.1104-.8779 4.2461-1.9424 6.4121-3.1924 2.1152-1.2207 4.043-2.5029 5.7813-3.8467l23.9492,8.0322-6.1787-10.7002c-.7637-1.3242-1.5557-2.1514-2.373-2.4775s-1.7979-.1582-2.9443.5039l-.5732.3301-.5732.332-1.1035-1.9121 2.8457-1.3369c.3066-.1768.7793-.415 1.4199-.7178s1.1143-.541 1.4199-.7188c.7646-.4414 1.5615-.9697 2.3955-1.5859s1.4766-1.0908 1.9316-1.4209l1.1474,1.9873z" fill="#ec2627"/>
  <path d="m80.1226,60.8013 3.5137,7.5c-.3555.207-2.0156,1.1133-4.9766,2.7217s-5.8521,3.1924-8.6724,4.752-5.0693,2.8242-6.75,3.7949c-1.2998.751-2.6416,1.5762-4.0254,2.4756s-2.6426,1.7471-3.7803,2.541l-1.1035-1.9121c.168-.0615.3145-.1289.4424-.2041l.3818-.2197c1.835-1.0596 2.1865-2.5703 1.0537-4.5322l-10.2812-17.8087c-1.1338-1.9619-2.541-2.458-4.2227-1.4873-.2959.1367-.4941.2344-.5957.293s-.2402.1729-.4141.3418l-1.1475-1.9873c1.1035-.501 2.3203-1.085 3.6514-1.751s2.5947-1.3462 3.793-2.0371c3.0068-1.7363 5.5361-3.2231 7.5908-4.46s4.292-2.5962 6.7148-4.0801 4.1904-2.5815 5.3086-3.2939l4.2432,6.4668-1.9492,1.1265-.6494-.9512c-1.168-1.4321-2.2246-2.1875-3.1719-2.27s-2.4014.4443-4.3643,1.5762l-7.4521,4.3032 6.1563,10.6626 7.0713-4.082c1.3486-.7803 2.1846-1.5244 2.5049-2.2363s.1787-1.5884-.4248-2.6338l-.375-.6494 1.8711-1.082 .6631,1.1465 .5732.9941 .5078.8794 .4414.7642 .3535.6123 .3301.5723 .2871.498 .2432.4189 .7832,1.3574c.2568.4453.5107.8848.7607,1.3193l.2197.3809-1.9102,1.1035-.3809-.748c-.6465-1.1221-1.3477-1.7266-2.0986-1.8203s-1.832.2676-3.2383,1.0791l-7.0575,4.075 4.4131,7.6426c.8975,1.5547 1.6641,2.3955 2.2969,2.5225s1.8164-.3115 3.5488-1.3115l5.1216-2.957c1.6289-.9404 2.6348-1.9531 3.0117-3.0361 .375-1.085.2148-2.4951-.4824-4.2314-.0234-.1572-.0859-.3252-.1895-.5039l-.2422-.4199 2.1036-1.215z" fill="#ec2627"/>
  <path d="m115.396,15.7236-.2852.2148c-1.3066.9272-1.8301,2.147-1.5703,3.6582l.2188,1.0903 .1621,1.0781 5.0273,26.1489-5.2363,3.0229-13.0313-10.9219 3.0957,16.6592-5.5039,3.1777-20.6093-16.9851-.4785-.3877c-1.293-.8862-2.437-1.4092-3.4282-1.5679s-1.9092.0044-2.748.4897l-1.0811-1.8726c2.6182-1.1724 5.3037-2.5527 8.0542-4.1416 2.4707-1.4263 4.7676-2.9219 6.8887-4.4863l1.1035,1.9121c-.1934.0771-.3281.1372-.4043.1812-.0508.0303-.2676.2471-.6445.6514s-.3242,1.0264.1602,1.8662c.1914.3301.4473.6563.7695.979l1.8848,1.5039 11.9277,10.0942-2.0293-10.436-4.4805-3.6099-1.2734-1.0576c-.709-.5801-1.3105-.958-1.8027-1.1353s-.9648-.2451-1.418-.2056-.8867.1445-1.2988.3125l-1.0801-1.8721c1.3887-.5981 2.7773-1.2642 4.1699-1.9995s2.8789-1.5601 4.459-2.4722c2.9297-1.6924 5.6445-3.4297 8.1484-5.2148l1.1035,1.9106-.6719.3369c-2.5723,1.4863-3.4707,2.9028-2.6934,4.2485 .1738.3047.4648.6294.8672.9727l1.3457,1.1025 11.7578,9.9814-3.1484-15.8037-.2246-.9512-.2051-.8408c-.0781-.3276-.1816-.6069-.3145-.8354-.6172-1.0688-1.793-1.1025-3.5254-.1025l-.4961.2871-1.0801-1.873c.7461-.2944 1.5742-.6543 2.4844-1.0776s1.7734-.8721 2.5879-1.3423c.5859-.3384 1.1895-.7363 1.8086-1.1958s1.1777-.9009 1.6797-1.3267l1.0586,1.8351z" fill="#ec2627"/>
  <path d="m129.7983,8.9863 5.7168,17.4912-4.2422,2.4492-12.1152-13.7456c-.0684-.0625-.1289-.1367-.1816-.2266s-.084-.146-.0996-.1719c-.5-.8652-.4648-1.8789.1055-3.041s1.6934-2.2266 3.375-3.1978c.6895-.3979 1.5156-.7627 2.4766-1.0977s1.9004-.3999 2.8145-.1982 1.5625.6338 1.9453,1.2974c.1034.1783.1717.3253.2049.441zm1.4903,27.1158c.6602,1.1465 1.7012,1.8462 3.1211,2.0962s2.916-.0791 4.4961-.9912l.5742-.3311c.252-.2129.6855-.5483 1.3047-1.0078s1.0801-1.3042 1.3887-2.5347 .1758-2.3438-.3984-3.3379-1.5527-1.6748-2.9395-2.0469c-1.3848-.3711-2.9336-.0649-4.6387.9204-1.6328.9419-2.6934,2.0903-3.1875,3.4434s-.3985,2.6177.2793,3.7896z" fill="#ec2627"/>
 </g>
</svg>
